<?xml version="1.0" encoding="UTF-8"?>
<svg id="_图层_1" data-name="图层 1" xmlns="http://www.w3.org/2000/svg" viewBox="0 0 137 137">
  <defs>
    <style>
      .cls-1 {
        stroke: #2ea7e0;
        stroke-width: .5px;
      }

      .cls-1, .cls-2 {
        stroke-miterlimit: 10;
      }

      .cls-1, .cls-2, .cls-3 {
        fill: none;
      }

      .cls-2, .cls-3 {
        stroke: #231815;
        stroke-linecap: round;
        stroke-width: 8px;
      }

      .cls-3 {
        stroke-linejoin: round;
      }

      .cls-4 {
        fill: #231815;
      }
    </style>
  </defs>
  <path class="cls-4" d="m69.98,118.67c0,1.95-1.58,3.54-3.53,3.54s-3.54-1.59-3.54-3.54,1.58-3.54,3.54-3.54,3.53,1.59,3.53,3.54Z"/>
  <path class="cls-4" d="m91.63,118.67c0,1.95-1.58,3.54-3.54,3.54s-3.53-1.59-3.53-3.54,1.58-3.54,3.53-3.54,3.54,1.59,3.54,3.54Z"/>
  <path class="cls-1" d="m45.43,111.33s0,.03,0,.04c-.02-.01-.04-.03-.06-.04"/>
  <path class="cls-4" d="m69.98,118.67c0,1.95-1.58,3.54-3.53,3.54s-3.54-1.59-3.54-3.54,1.58-3.54,3.54-3.54,3.53,1.59,3.53,3.54Z"/>
  <path class="cls-4" d="m91.63,118.67c0,1.95-1.58,3.54-3.54,3.54s-3.53-1.59-3.53-3.54,1.58-3.54,3.53-3.54,3.54,1.59,3.54,3.54Z"/>
  <g>
    <path class="cls-2" d="m45.36,111.33c-12.45-9.33-20.66-23.98-21.28-40.54-.03-.83-.05-1.66-.04-2.5.25-29.37,24.27-52.97,53.64-52.72"/>
    <path class="cls-3" d="m89.67,103.54c-4.03-1-8.24-1.54-12.57-1.58-4.97-.04-9.8.59-14.38,1.81-2.66-4.16-5.67-8.08-8.98-11.72-.06-.07-.13-.14-.19-.2-.29-.32-.58-.64-.88-.95h-.01c-3.16,6.42-5.56,13.29-7.07,20.51"/>
    <path class="cls-3" d="m90.63,103.76c2.66-4.16,5.67-8.08,8.98-11.72.06-.07.13-.14.19-.2.29-.32.58-.64.88-.95h.01c3.16,6.42,5.56,13.29,7.07,20.51"/>
  </g>
</svg>