<?xml version="1.0" encoding="UTF-8"?>
<svg id="_图层_1" data-name="图层 1" xmlns="http://www.w3.org/2000/svg" viewBox="0 0 156.65 156.65">
  <defs>
    <style>
      .cls-1, .cls-2, .cls-3, .cls-4 {
        fill: none;
      }

      .cls-1, .cls-2, .cls-4 {
        stroke-miterlimit: 10;
      }

      .cls-1, .cls-3 {
        stroke: #231815;
        stroke-linecap: round;
        stroke-width: 5px;
      }

      .cls-2 {
        stroke: #2ea7e0;
      }

      .cls-2, .cls-4 {
        stroke-width: .5px;
      }

      .cls-3 {
        stroke-linejoin: round;
      }

      .cls-5 {
        fill: #231815;
      }

      .cls-4 {
        stroke: #036eb8;
      }
    </style>
  </defs>
  <circle class="cls-4" cx="-16.95" cy="-25.3" r="25.3"/>
  <path class="cls-5" d="m76.26,127.28c0,1.95-1.58,3.54-3.53,3.54s-3.54-1.59-3.54-3.54,1.58-3.54,3.54-3.54,3.53,1.59,3.53,3.54Z"/>
  <path class="cls-5" d="m97.91,127.28c0,1.95-1.58,3.54-3.54,3.54s-3.53-1.59-3.53-3.54,1.58-3.54,3.53-3.54,3.54,1.59,3.54,3.54Z"/>
  <path class="cls-3" d="m114.83,119.87c-1.46-7.06-3.76-13.8-6.8-20.12h-.01c-.3.31-.6.62-.89.94-.06.06-.13.13-.19.2-3.34,3.61-6.38,7.5-9.08,11.65"/>
  <path class="cls-1" d="m52.06,120.12c-12.53-9.22-20.87-23.8-21.63-40.36-.04-.83-.06-1.66-.06-2.5,0-29.37,23.81-53.18,53.18-53.18"/>
  <path class="cls-2" d="m52.13,120.12s0,.03,0,.04c-.02-.01-.04-.03-.06-.04"/>
  <path class="cls-3" d="m98.08,112.4c-4.58-1.26-9.4-1.93-14.37-1.93s-9.79.67-14.36,1.93c-2.7-4.14-5.74-8.03-9.08-11.64-.06-.07-.13-.14-.19-.2-.29-.32-.59-.63-.89-.94h-.01c-3.1,6.45-5.44,13.34-6.89,20.57"/>
  <path class="cls-5" d="m76.26,127.28c0,1.95-1.58,3.54-3.53,3.54s-3.54-1.59-3.54-3.54,1.58-3.54,3.54-3.54,3.53,1.59,3.53,3.54Z"/>
  <path class="cls-5" d="m97.91,127.28c0,1.95-1.58,3.54-3.54,3.54s-3.53-1.59-3.53-3.54,1.58-3.54,3.53-3.54,3.54,1.59,3.54,3.54Z"/>
</svg>