<?xml version="1.0" encoding="UTF-8"?>
<svg id="_图层_1" data-name="图层 1" xmlns="http://www.w3.org/2000/svg" viewBox="0 0 130.82 130.82">
  <defs>
    <style>
      .cls-1 {
        stroke: #2ea7e0;
        stroke-width: .5px;
      }

      .cls-1, .cls-2, .cls-3, .cls-4, .cls-5 {
        fill: none;
      }

      .cls-1, .cls-2, .cls-6, .cls-5 {
        stroke-miterlimit: 10;
      }

      .cls-2, .cls-3, .cls-4, .cls-5 {
        stroke-linecap: round;
      }

      .cls-2, .cls-4 {
        stroke: #231815;
        stroke-width: 8px;
      }

      .cls-3, .cls-4 {
        stroke-linejoin: round;
      }

      .cls-3, .cls-6, .cls-5 {
        stroke: #fff;
      }

      .cls-3, .cls-5 {
        stroke-width: 5px;
      }

      .cls-6 {
        fill: #fff;
      }

      .cls-7 {
        fill: #231815;
      }
    </style>
  </defs>
  <path class="cls-7" d="m65.42,117.35c0,1.95-1.58,3.54-3.53,3.54s-3.54-1.59-3.54-3.54,1.58-3.54,3.54-3.54,3.53,1.59,3.53,3.54Z"/>
  <path class="cls-7" d="m87.07,117.35c0,1.95-1.58,3.54-3.54,3.54s-3.53-1.59-3.53-3.54,1.58-3.54,3.53-3.54,3.54,1.59,3.54,3.54Z"/>
  <path class="cls-1" d="m40.87,110.01s0,.03,0,.04c-.02-.01-.04-.03-.06-.04"/>
  <path class="cls-7" d="m65.42,117.35c0,1.95-1.58,3.54-3.53,3.54s-3.54-1.59-3.54-3.54,1.58-3.54,3.54-3.54,3.53,1.59,3.53,3.54Z"/>
  <path class="cls-7" d="m87.07,117.35c0,1.95-1.58,3.54-3.54,3.54s-3.53-1.59-3.53-3.54,1.58-3.54,3.53-3.54,3.54,1.59,3.54,3.54Z"/>
  <g>
    <path class="cls-2" d="m40.8,110.01c-12.45-9.33-20.66-23.98-21.28-40.54-.03-.83-.05-1.66-.04-2.5.25-29.37,24.27-52.97,53.64-52.72"/>
    <path class="cls-4" d="m85.11,102.22c-4.03-1-8.24-1.54-12.57-1.58-4.97-.04-9.8.59-14.38,1.81-2.66-4.16-5.67-8.08-8.98-11.72-.06-.07-.13-.14-.19-.2-.29-.32-.58-.64-.88-.95h-.01c-3.16,6.42-5.56,13.29-7.07,20.51"/>
    <path class="cls-4" d="m86.07,102.44c2.66-4.16,5.67-8.08,8.98-11.72.06-.07.13-.14.19-.2.29-.32.58-.64.88-.95h.01c3.16,6.42,5.56,13.29,7.07,20.51"/>
  </g>
  <g>
    <path class="cls-5" d="m55.02,84.13c-6.95-5.21-11.55-13.4-11.89-22.65-.02-.46-.03-.93-.02-1.4.14-16.41,13.56-29.6,29.97-29.45"/>
    <path class="cls-3" d="m79.77,79.77c-2.25-.56-4.6-.86-7.02-.88-2.78-.02-5.47.33-8.03,1.01-1.49-2.33-3.17-4.51-5.02-6.55-.03-.04-.07-.08-.11-.11-.16-.18-.33-.35-.49-.53h0c-1.77,3.59-3.1,7.43-3.95,11.46"/>
    <path class="cls-3" d="m80.31,79.9c1.49-2.33,3.17-4.51,5.02-6.55.03-.04.07-.08.11-.11.16-.18.33-.35.49-.53h0c1.77,3.59,3.1,7.43,3.95,11.46"/>
  </g>
  <path class="cls-6" d="m67.5,87.62c0,1.15-.93,2.09-2.09,2.09s-2.09-.94-2.09-2.09.93-2.09,2.09-2.09,2.09.94,2.09,2.09Z"/>
  <path class="cls-6" d="m80.31,87.62c0,1.15-.93,2.09-2.09,2.09s-2.09-.94-2.09-2.09.93-2.09,2.09-2.09,2.09.94,2.09,2.09Z"/>
  <path class="cls-6" d="m67.5,87.62c0,1.15-.93,2.09-2.09,2.09s-2.09-.94-2.09-2.09.93-2.09,2.09-2.09,2.09.94,2.09,2.09Z"/>
  <path class="cls-6" d="m80.31,87.62c0,1.15-.93,2.09-2.09,2.09s-2.09-.94-2.09-2.09.93-2.09,2.09-2.09,2.09.94,2.09,2.09Z"/>
</svg>